<svg xmlns="http://www.w3.org/2000/svg" width="196.952" height="19.964" viewBox="0 0 196.952 19.964">
  <path id="logo" d="M21.644-2.408a9.146,9.146,0,0,0,.994,1.246A6.606,6.606,0,0,0,23.38-.5,1.275,1.275,0,0,0,24-.224V0H20.972q-.364,0-1.022-.028a8.691,8.691,0,0,1-1.442-.2,7.52,7.52,0,0,1-1.6-.546A5.307,5.307,0,0,1,15.4-1.848,11.222,11.222,0,0,1,14.168-3.36q-.644-.924-1.33-2.016t-1.456-2.3q-.77-1.2-1.638-2.352v9.8h2.8V0H.532V-.224h2.8V-19.376H.532V-19.6H12.544v.224h-2.8v9.016l7.224-7.028a1.828,1.828,0,0,0,.168-.2q.056-.112.112-.238a.883.883,0,0,0,.056-.35,1.108,1.108,0,0,0-.378-.868,1.36,1.36,0,0,0-.938-.336h-.42V-19.6H21.5v.224H20.72a.645.645,0,0,0-.252.084,3.4,3.4,0,0,0-.462.21l-.77.406a9.605,9.605,0,0,0-1.456.924,5.552,5.552,0,0,0-.448.392L14-14q.784,1.26,1.4,2.24t1.162,1.834q.546.854,1.064,1.652t1.106,1.666q.588.868,1.288,1.89T21.644-2.408Zm19.4-15.624a1.3,1.3,0,0,0-.392-.952,1.3,1.3,0,0,0-.952-.392H38.248V-19.6h5.824v.224H42.616a1.3,1.3,0,0,0-.952.392,1.3,1.3,0,0,0-.392.952V-4.816a4.493,4.493,0,0,1-.5,1.96,5.407,5.407,0,0,1-1.9,1.988,5.328,5.328,0,0,1-2.352.9A19.684,19.684,0,0,1,33.964.2,17.029,17.029,0,0,1,31.472.014a9.684,9.684,0,0,1-2.408-.686,7.609,7.609,0,0,1-1.106-.644,3.944,3.944,0,0,1-.91-.9A4.524,4.524,0,0,1,26.124-5.1v-14.28h-2.8V-19.6H34.3v.224H32.536v14.14a6.7,6.7,0,0,0,.182,1.624,2.777,2.777,0,0,0,.574,1.176,5.115,5.115,0,0,0,1.4,1.162,3.67,3.67,0,0,0,1.848.462,5.076,5.076,0,0,0,1.428-.2,3.679,3.679,0,0,0,1.148-.574,5.131,5.131,0,0,0,.98-.924,4.578,4.578,0,0,0,.672-1.12,3.065,3.065,0,0,0,.252-1.19ZM65.464-2.408a9.147,9.147,0,0,0,.994,1.246A6.606,6.606,0,0,0,67.2-.5a1.275,1.275,0,0,0,.616.28V0H64.792q-.364,0-1.022-.028a8.691,8.691,0,0,1-1.442-.2,7.52,7.52,0,0,1-1.6-.546A5.307,5.307,0,0,1,59.22-1.848,11.222,11.222,0,0,1,57.988-3.36q-.644-.924-1.33-2.016T55.2-7.672q-.77-1.2-1.638-2.352v9.8h2.8V0H44.352V-.224h2.8V-19.376h-2.8V-19.6H56.364v.224h-2.8v9.016l7.224-7.028a1.828,1.828,0,0,0,.168-.2q.056-.112.112-.238a.883.883,0,0,0,.056-.35,1.108,1.108,0,0,0-.378-.868,1.36,1.36,0,0,0-.938-.336h-.42V-19.6h5.936v.224H64.54a.645.645,0,0,0-.252.084,3.4,3.4,0,0,0-.462.21l-.77.406a9.605,9.605,0,0,0-1.456.924,5.552,5.552,0,0,0-.448.392L57.82-14q.784,1.26,1.4,2.24t1.162,1.834q.546.854,1.064,1.652t1.106,1.666q.588.868,1.288,1.89T65.464-2.408ZM79.52-12.6a9.984,9.984,0,0,1,3.85,2.954,6.212,6.212,0,0,1,1.162,3.682,5.645,5.645,0,0,1-.56,2.534,5.953,5.953,0,0,1-1.554,1.96A7.211,7.211,0,0,1,80.108-.2,8.719,8.719,0,0,1,77.28.252h-.364a7.458,7.458,0,0,1-2.646-.49,17.5,17.5,0,0,1-2.646-1.274.458.458,0,0,0-.252-.056.9.9,0,0,0-.588.238,4.224,4.224,0,0,0-.532.546,4.2,4.2,0,0,0-.56.784h-.224l-.532-7.98h.224q.084.532.224,1.148.14.532.378,1.2a7.418,7.418,0,0,0,.686,1.4q.476.812,1.106,1.708a4.856,4.856,0,0,0,1.47,1.4A8.093,8.093,0,0,0,75.712-.084,4.72,4.72,0,0,0,76.636,0Q77.2,0,77.8-.056a3.728,3.728,0,0,0,1.078-.252,2.8,2.8,0,0,0,1.008-.714,2.2,2.2,0,0,0,.336-1.386,2.132,2.132,0,0,0-.616-1.4A9.376,9.376,0,0,0,77.98-5.222q-1.008-.714-2.3-1.47T73.024-8.26a9.585,9.585,0,0,1-3.29-3.024,6.833,6.833,0,0,1-1.022-3.668,3.94,3.94,0,0,1,1.89-3.57,10.536,10.536,0,0,1,5.558-1.19,7.087,7.087,0,0,1,2.52.476,24.783,24.783,0,0,1,2.52,1.12.916.916,0,0,0,.224.056.985.985,0,0,0,.6-.224,3.258,3.258,0,0,0,.546-.532,4.2,4.2,0,0,0,.56-.784h.224L84-13.524h-.224q-.084-.168-.252-.476-.14-.28-.434-.742t-.742-1.19q-.112-.168-.322-.448t-.49-.588q-.28-.308-.6-.616t-.6-.56a12.7,12.7,0,0,0-1.96-.938,6.682,6.682,0,0,0-2.24-.434,3.832,3.832,0,0,0-.812.1,2.4,2.4,0,0,0-.826.35,2.28,2.28,0,0,0-.644.658,1.775,1.775,0,0,0-.266.994,3.062,3.062,0,0,0,1.386,2.128A24.049,24.049,0,0,0,79.52-12.6ZM105.336,0h-11.9V-.224h2.492V-19.376H93.436V-19.6H111.02v6.524h-.252q0-.616-.028-1.12a4.877,4.877,0,0,0-.154-.98,5.5,5.5,0,0,0-.378-.994,8.9,8.9,0,0,0-.7-1.162,5.268,5.268,0,0,0-1.036-1.148,3.644,3.644,0,0,0-1.134-.616,5.164,5.164,0,0,0-1.288-.238q-.686-.042-1.442-.042h-2.24v9.184h1.2q.5,0,.952-.028a3.436,3.436,0,0,0,.84-.154,2.462,2.462,0,0,0,.728-.378,2.957,2.957,0,0,0,.644-.7,7.355,7.355,0,0,0,.756-1.4,4.111,4.111,0,0,0,.28-1.54H108v8.624h-.224a4.222,4.222,0,0,0-.266-1.512,6.72,6.72,0,0,0-.77-1.428,2.455,2.455,0,0,0-1.358-1.036,6.688,6.688,0,0,0-1.806-.224h-1.2V-.252l2.968.028Zm24-8.064A21.2,21.2,0,0,1,131-5.838q.882,1.33,1.722,2.59t1.526,2.156q.686.9,1.078.9V0H130.34a4.186,4.186,0,0,1-2.562-.8,9.3,9.3,0,0,1-1.96-2,23.736,23.736,0,0,1-1.638-2.576,25.806,25.806,0,0,0-1.6-2.548A20.67,20.67,0,0,1,121.408-9.7q-.28-.518-.476-.546V-.224h2.8V0H111.944V-.224h2.828V-19.376h-2.828V-19.6h14.672a11.026,11.026,0,0,1,3.108.672,8.431,8.431,0,0,1,1.148.6,4.44,4.44,0,0,1,1.008.868,4.073,4.073,0,0,1,.714,1.2,4.356,4.356,0,0,1,.266,1.582,3.693,3.693,0,0,1-.742,2.45,4.754,4.754,0,0,1-1.722,1.316,6.723,6.723,0,0,1-1.988.546,15.007,15.007,0,0,1-1.512.112h-.364l-3.64.028a16.283,16.283,0,0,1,2.576.252,12.789,12.789,0,0,1,2.142.658A4.1,4.1,0,0,1,129.332-8.064Zm-8.4-11.284v8.876h1.708a8.619,8.619,0,0,0,1.778-.154,2.372,2.372,0,0,0,1.148-.56,2.241,2.241,0,0,0,.616-1.092,7.127,7.127,0,0,0,.182-1.778v-.616a4.043,4.043,0,0,0-.7-2.478,5.066,5.066,0,0,0-1.54-1.414,6.915,6.915,0,0,0-2.212-.784ZM152.124-2.576a9.01,9.01,0,0,0,.868-1.456,6.869,6.869,0,0,0,.448-1.26,5.461,5.461,0,0,0,.154-1.12q.014-.532.014-1.036h.252V0H136.192V-.224h2.492V-19.376h-2.492V-19.6H153.44v6.524h-.252q0-.616-.028-1.12a4.876,4.876,0,0,0-.154-.98,5.5,5.5,0,0,0-.378-.994,8.9,8.9,0,0,0-.7-1.162,5.268,5.268,0,0,0-1.036-1.148,3.644,3.644,0,0,0-1.134-.616,5.164,5.164,0,0,0-1.288-.238q-.686-.042-1.442-.042h-1.9v9.184h1.2q.5,0,.924-.028a3.182,3.182,0,0,0,.8-.154,2.146,2.146,0,0,0,.686-.378,3.353,3.353,0,0,0,.616-.7,7.354,7.354,0,0,0,.756-1.4,4.111,4.111,0,0,0,.28-1.54h.224v8.624h-.224a4.222,4.222,0,0,0-.266-1.512,6.721,6.721,0,0,0-.77-1.428,2.483,2.483,0,0,0-1.288-1.036,5.94,5.94,0,0,0-1.736-.224h-1.2V-.224h2.352q.784,0,1.372-.042a3.762,3.762,0,0,0,1.12-.252A3.276,3.276,0,0,0,151-1.2,8.684,8.684,0,0,0,152.124-2.576ZM167.944-12.6a9.984,9.984,0,0,1,3.85,2.954,6.212,6.212,0,0,1,1.162,3.682,5.645,5.645,0,0,1-.56,2.534,5.953,5.953,0,0,1-1.554,1.96A7.211,7.211,0,0,1,168.532-.2,8.719,8.719,0,0,1,165.7.252h-.364a7.458,7.458,0,0,1-2.646-.49,17.5,17.5,0,0,1-2.646-1.274.458.458,0,0,0-.252-.056.9.9,0,0,0-.588.238,4.224,4.224,0,0,0-.532.546,4.2,4.2,0,0,0-.56.784h-.224l-.532-7.98h.224q.084.532.224,1.148.14.532.378,1.2a7.417,7.417,0,0,0,.686,1.4q.476.812,1.106,1.708a4.856,4.856,0,0,0,1.47,1.4,8.093,8.093,0,0,0,2.688,1.036A4.72,4.72,0,0,0,165.06,0q.56,0,1.162-.056A3.728,3.728,0,0,0,167.3-.308a2.8,2.8,0,0,0,1.008-.714,2.2,2.2,0,0,0,.336-1.386,2.132,2.132,0,0,0-.616-1.4A9.376,9.376,0,0,0,166.4-5.222q-1.008-.714-2.3-1.47t-2.66-1.568a9.585,9.585,0,0,1-3.29-3.024,6.833,6.833,0,0,1-1.022-3.668,3.94,3.94,0,0,1,1.89-3.57,10.536,10.536,0,0,1,5.558-1.19,7.087,7.087,0,0,1,2.52.476,24.785,24.785,0,0,1,2.52,1.12.916.916,0,0,0,.224.056.985.985,0,0,0,.6-.224,3.258,3.258,0,0,0,.546-.532,4.2,4.2,0,0,0,.56-.784h.224l.644,6.076H172.2q-.084-.168-.252-.476-.14-.28-.434-.742t-.742-1.19q-.112-.168-.322-.448t-.49-.588q-.28-.308-.6-.616t-.6-.56a12.7,12.7,0,0,0-1.96-.938,6.682,6.682,0,0,0-2.24-.434,3.832,3.832,0,0,0-.812.1,2.4,2.4,0,0,0-.826.35,2.28,2.28,0,0,0-.644.658,1.775,1.775,0,0,0-.266.994,3.062,3.062,0,0,0,1.386,2.128A24.049,24.049,0,0,0,167.944-12.6ZM194.964-.224h2.52V0h-2.52Zm2.52-19.376v.224h-2.52V-19.6ZM194.964,0h-7.952V-.224h1.736V-10.08h-6.132V-.224h1.736V0H173.908V-.224h2.52V-19.376h-2.52V-19.6h10.444v.224h-1.736v9.044h6.132v-9.044h-1.736V-19.6h7.952Z" transform="translate(-0.532 19.712)" fill="#ef4c00"/>
</svg>
