<svg xmlns="http://www.w3.org/2000/svg" width="28.112" height="24.341" viewBox="0 0 28.112 24.341">
  <g id="Grupo_842" data-name="Grupo 842" transform="translate(0.5 0.501)">
    <path id="Caminho_740" data-name="Caminho 740" d="M657.53,1043.054a8.251,8.251,0,1,0,0,11.669A8.251,8.251,0,0,0,657.53,1043.054Z" transform="translate(-640.027 -1037.22)" fill="none" stroke="#2e4765" stroke-linecap="round" stroke-linejoin="round" stroke-width="1"/>
    <path id="Caminho_741" data-name="Caminho 741" d="M671.24,1074.621a.4.4,0,0,0-.193.75,5.377,5.377,0,0,0,7.237-7.342.4.4,0,0,0-.748.2" transform="translate(-661.457 -1058.489)" fill="none" stroke="#2e4765" stroke-linecap="round" stroke-linejoin="round" stroke-width="1"/>
    <path id="Caminho_742" data-name="Caminho 742" d="M659.773,1050.962a6,6,0,0,0-6,6" transform="translate(-648.103 -1045.296)" fill="none" stroke="#2e4765" stroke-linecap="round" stroke-linejoin="round" stroke-width="1"/>
    <path id="Caminho_743" data-name="Caminho 743" d="M647.668,1028.358q-.2-.205-.418-.4a11.669,11.669,0,1,0-1.008,18.115" transform="translate(-627.747 -1024.941)" fill="none" stroke="#2e4765" stroke-linecap="round" stroke-linejoin="round" stroke-width="1"/>
    <g id="Grupo_841" data-name="Grupo 841" transform="translate(21.475 2.291)">
      <path id="Caminho_744" data-name="Caminho 744" d="M728.351,1044.36a2.319,2.319,0,0,0-.754-1.7,4.26,4.26,0,0,1-1.218-3.11c0-2.065,1.262-4.087,2.819-4.087s2.818,2.022,2.818,4.087a4.268,4.268,0,0,1-1.221,3.11,2.313,2.313,0,0,0-.751,1.7v9.949a.846.846,0,0,1-.846.846h0a.846.846,0,0,1-.846-.846Z" transform="translate(-726.378 -1035.464)" fill="none" stroke="#2e4765" stroke-linecap="round" stroke-miterlimit="10" stroke-width="1"/>
      <path id="Caminho_745" data-name="Caminho 745" d="M739.326,1041.473c.692,0,1.57,1.308,1.57,2.779" transform="translate(-736.507 -1040.165)" fill="none" stroke="#2e4765" stroke-linecap="round" stroke-miterlimit="10" stroke-width="1"/>
    </g>
  </g>
</svg>
