<svg id="Group_9" data-name="Group 9" xmlns="http://www.w3.org/2000/svg" width="260" height="45" viewBox="0 0 260 45">
  <defs>
    <style>
      .cls-1 {
        fill: #003855;
      }

      .cls-2 {
        fill: #065064;
      }

      .cls-3 {
        fill: #72b01d;
      }
    </style>
  </defs>
  <g id="_1-daw-travel-logo-Principal" data-name="1-daw-travel-logo-Principal">
    <path id="Path_3" data-name="Path 3" class="cls-1" d="M57.338,44h7.826V73.742H57.338V71.788a8.772,8.772,0,0,1-6.692,2.55,10.664,10.664,0,0,1-7.894-3.211,11.668,11.668,0,0,1,0-16.017A10.676,10.676,0,0,1,50.646,51.9a8.749,8.749,0,0,1,6.692,2.55ZM48.805,66.5a5.671,5.671,0,0,0,7.166,0,4.8,4.8,0,0,0,0-6.713,5.671,5.671,0,0,0-7.166,0,4.815,4.815,0,0,0,0,6.713Z" transform="translate(-39.57 -42.725)"/>
    <path id="Path_4" data-name="Path 4" class="cls-1" d="M112.988,61.454h7.826V82.7h-7.826V80.743a8.772,8.772,0,0,1-6.692,2.55A10.664,10.664,0,0,1,98.4,80.082a11.668,11.668,0,0,1,0-16.017,10.676,10.676,0,0,1,7.894-3.206,8.749,8.749,0,0,1,6.692,2.55Zm-8.523,14a5.662,5.662,0,0,0,7.16,0,4.8,4.8,0,0,0,0-6.713,5.662,5.662,0,0,0-7.16,0,4.8,4.8,0,0,0,0,6.713Z" transform="translate(-66.282 -52.508)"/>
    <path id="Path_5" data-name="Path 5" class="cls-1" d="M178.064,62.13h8.278L179.13,83.374h-7.618l-3.4-10.781-3.39,10.781h-7.639L149.88,62.13h8.32l3.12,11.555,3.536-11.555h6.562l3.536,11.555Z" transform="translate(-90.391 -53.197)"/>
    <path id="Path_6" data-name="Path 6" class="cls-2" d="M313.776,58.107H306.99V70.979a3.409,3.409,0,0,0,.754,2.489,3.193,3.193,0,0,0,2.262.764q1.5,0,3.77-.066v2.466q-4.945.675-7.42-.638t-2.475-5.016V58.107h-4.95V55.388h4.95v-5.1L307,49.44v5.948h6.786Z" transform="translate(-159.515 -45.615)"/>
    <path id="Path_7" data-name="Path 7" class="cls-2" d="M340.55,65.267Q342.718,61.4,348,61.4v2.723a8.238,8.238,0,0,0-5.325,1.7q-2.122,1.7-2.122,5.353V82.986h-3.12V61.742h3.12Z" transform="translate(-177.413 -52.791)"/>
    <path id="Path_8" data-name="Path 8" class="cls-2" d="M382.152,61.529h3.12V82.772h-3.12V78.61Q378.9,83.3,372.63,83.3a12.347,12.347,0,0,1-8.6-3.23,10.549,10.549,0,0,1,0-15.806A12.338,12.338,0,0,1,372.63,61a10.9,10.9,0,0,1,9.521,4.688ZM366.266,78.118a10.136,10.136,0,0,0,13.2,0,7.972,7.972,0,0,0,0-11.939,10.136,10.136,0,0,0-13.2,0A7.984,7.984,0,0,0,366.266,78.118Z" transform="translate(-187.727 -52.584)"/>
    <path id="Path_9" data-name="Path 9" class="cls-2" d="M435.2,62.13h3.3l-9.662,21.244h-3.76L415.4,62.13h3.3l8.252,18.248Z" transform="translate(-211.972 -53.197)"/>
    <path id="Path_10" data-name="Path 10" class="cls-2" d="M474.828,61a11.24,11.24,0,0,1,8.46,3.338,10.939,10.939,0,0,1,3.229,7.912,12.854,12.854,0,0,1-.094,1.317H465.733a7.431,7.431,0,0,0,3.037,5.119,10.409,10.409,0,0,0,6.339,1.875,10.1,10.1,0,0,0,4.644-.994,7.156,7.156,0,0,0,2.948-2.63l2.73,1.444a10.817,10.817,0,0,1-4.238,3.572,13.791,13.791,0,0,1-6.131,1.317,13,13,0,0,1-9.048-3.145,10.262,10.262,0,0,1-3.489-7.969,10.378,10.378,0,0,1,3.442-7.969A12.526,12.526,0,0,1,474.828,61Zm0,2.719c-4.636-.144-8.606,2.967-9.095,7.125h17.576a7.669,7.669,0,0,0-2.87-5.227,8.871,8.871,0,0,0-5.611-1.88Z" transform="translate(-234.589 -52.584)"/>
    <path id="Path_11" data-name="Path 11" class="cls-2" d="M518.18,72.3V41.28h3.12V72.3Z" transform="translate(-261.306 -41.28)"/>
    <path id="Path_12" data-name="Path 12" class="cls-1" d="M337.454,135.087a2.969,2.969,0,0,1-1.56-.384,2.042,2.042,0,0,1-.894-1.069l.562-.3a1.551,1.551,0,0,0,.655.853,2.217,2.217,0,0,0,1.227.309,1.957,1.957,0,0,0,1.139-.291.905.905,0,0,0,.406-.773.763.763,0,0,0-.348-.694,5.134,5.134,0,0,0-1.238-.492,7.846,7.846,0,0,1-1.347-.469,1.276,1.276,0,0,1-.749-1.177,1.4,1.4,0,0,1,.577-1.186,2.332,2.332,0,0,1,1.435-.431,2.414,2.414,0,0,1,1.331.356,2.242,2.242,0,0,1,.832.938l-.551.281a1.846,1.846,0,0,0-2.595-.708.866.866,0,0,0-.374.75.733.733,0,0,0,.338.656,4.212,4.212,0,0,0,1.113.469l.52.155.452.155a3.357,3.357,0,0,1,.432.183c.094.056.208.127.343.22a1.009,1.009,0,0,1,.291.281,1.57,1.57,0,0,1,.161.338,1.253,1.253,0,0,1,.068.427,1.427,1.427,0,0,1-.624,1.13A2.6,2.6,0,0,1,337.454,135.087Z" transform="translate(-176.409 -90.111)"/>
    <path id="Path_13" data-name="Path 13" class="cls-1" d="M351.144,133.19l-.608-1.453h-3.12l-.608,1.453h-.7l2.543-5.911h.671l2.522,5.911Zm-3.489-2.011H350.3l-1.321-3.159Zm1.326-4.772-.338-.2a.556.556,0,0,0-.224-.075.157.157,0,0,0-.161.112,1.018,1.018,0,0,0-.047.361h-.52a1.159,1.159,0,0,1,.2-.741.57.57,0,0,1,.494-.234,1.141,1.141,0,0,1,.624.248l.276.178a.764.764,0,0,0,.2.089.183.183,0,0,0,.161,0,.267.267,0,0,0,.094-.15,1.166,1.166,0,0,0,.031-.3h.52a1.16,1.16,0,0,1-.2.741.569.569,0,0,1-.489.234A1.182,1.182,0,0,1,348.98,126.408Z" transform="translate(-181.533 -88.327)"/>
    <path id="Path_14" data-name="Path 14" class="cls-1" d="M364.74,134.125a3.71,3.71,0,0,1-4.329.414,2.928,2.928,0,0,1-1.286-3.749,3.515,3.515,0,0,1,3.833-1.861,3.19,3.19,0,0,1,2.766,3.031A2.812,2.812,0,0,1,364.74,134.125Zm-4.352-.408a2.986,2.986,0,0,0,3.895,0,2.364,2.364,0,0,0,0-3.52,2.986,2.986,0,0,0-3.895,0,2.356,2.356,0,0,0,0,3.52Z" transform="translate(-187.418 -90.049)"/>
    <path id="Path_15" data-name="Path 15" class="cls-1" d="M387.6,129.15v5.911h-.655v-5.016l-2.3,3.464h-.094l-2.293-3.464v5.016H381.6V129.15h.806l2.189,3.309,2.194-3.309Z" transform="translate(-197.963 -90.197)"/>
    <path id="Path_16" data-name="Path 16" class="cls-1" d="M397.45,129.15h.655v5.911h-.655Z" transform="translate(-205.432 -90.197)"/>
    <path id="Path_17" data-name="Path 17" class="cls-1" d="M408.95,132.162v.3a2.344,2.344,0,0,1-.868,1.875,3.429,3.429,0,0,1-2.335.759,3.554,3.554,0,0,1-2.44-.869,2.875,2.875,0,0,1-1-2.188,2.819,2.819,0,0,1,.978-2.17,3.523,3.523,0,0,1,2.46-.886,3.563,3.563,0,0,1,1.669.394,3.02,3.02,0,0,1,1.17,1.055l-.577.3a2.245,2.245,0,0,0-.92-.863,2.863,2.863,0,0,0-1.342-.319,2.719,2.719,0,0,0-2.539,1.793,2.364,2.364,0,0,0,1.088,2.737,3,3,0,0,0,3.225-.068,1.829,1.829,0,0,0,.759-1.28h-2.6v-.558Z" transform="translate(-207.537 -90.111)"/>
    <path id="Path_18" data-name="Path 18" class="cls-1" d="M422.614,134.587a2.985,2.985,0,0,1-3.526,0,1.915,1.915,0,0,1-.671-1.538v-3.9h.655v3.9a1.424,1.424,0,0,0,.468,1.125,2.26,2.26,0,0,0,2.6,0,1.424,1.424,0,0,0,.468-1.125v-3.9h.655v3.9A1.91,1.91,0,0,1,422.614,134.587Z" transform="translate(-215.042 -90.197)"/>
    <path id="Path_19" data-name="Path 19" class="cls-1" d="M432.585,134.5h3.182v.558H431.93V129.15h3.791v.558H432.6v2.1h2.9v.558h-2.9Z" transform="translate(-219.906 -90.197)"/>
    <path id="Path_20" data-name="Path 20" class="cls-1" d="M443.58,134.5h3v.558h-3.64V129.15h.655Z" transform="translate(-225.191 -90.197)"/>
    <path id="Path_21" data-name="Path 21" class="cls-1" d="M459.13,129.15h.655v5.911h-.655Z" transform="translate(-232.962 -90.197)"/>
    <path id="Path_22" data-name="Path 22" class="cls-1" d="M466.224,135.092a2.97,2.97,0,0,1-1.56-.384,2.045,2.045,0,0,1-.894-1.059l.562-.3a1.551,1.551,0,0,0,.655.853,2.218,2.218,0,0,0,1.227.309,1.945,1.945,0,0,0,1.139-.291.905.905,0,0,0,.406-.773.767.767,0,0,0-.374-.7,5.134,5.134,0,0,0-1.238-.492,7.847,7.847,0,0,1-1.347-.469,1.276,1.276,0,0,1-.749-1.177,1.4,1.4,0,0,1,.582-1.186,2.309,2.309,0,0,1,1.43-.431,2.414,2.414,0,0,1,1.331.356,2.242,2.242,0,0,1,.832.937l-.551.281a1.846,1.846,0,0,0-2.595-.708.865.865,0,0,0-.374.75.733.733,0,0,0,.338.656,4.211,4.211,0,0,0,1.113.469l.52.155.452.155a3.506,3.506,0,0,1,.437.183c.094.056.2.127.338.22a1.009,1.009,0,0,1,.291.281,1.568,1.568,0,0,1,.161.337,1.252,1.252,0,0,1,.068.427,1.417,1.417,0,0,1-.608,1.2,2.622,2.622,0,0,1-1.591.394Z" transform="translate(-235.189 -90.116)"/>
    <path id="Path_23" data-name="Path 23" class="cls-1" d="M476.925,134.5h3v.558h-3.64V129.15h.655Z" transform="translate(-241.194 -90.197)"/>
    <path id="Path_24" data-name="Path 24" class="cls-1" d="M490.638,135.061l-.608-1.453h-3.12l-.608,1.453h-.692l2.522-5.911h.671l2.522,5.911Zm-3.489-2.011H489.8l-1.326-3.159Z" transform="translate(-245.673 -90.197)"/>
    <path id="Path_25" data-name="Path 25" class="cls-1" d="M503.921,129.15h.634v5.911h-.52l-3.64-4.814v4.814h-.655V129.15h.572l3.64,4.8Z" transform="translate(-252.455 -90.197)"/>
    <path id="Path_26" data-name="Path 26" class="cls-1" d="M515.887,129.149a3.031,3.031,0,0,1,2.215.858,2.944,2.944,0,0,1,0,4.219,3.031,3.031,0,0,1-2.215.858H513.36v-5.934Zm0,5.353a2.382,2.382,0,0,0,1.768-.694,2.46,2.46,0,0,0,0-3.408,2.381,2.381,0,0,0-1.768-.694h-1.872v4.8Z" transform="translate(-258.993 -90.196)"/>
    <path id="Path_27" data-name="Path 27" class="cls-3" d="M258.589,55.182l-25.371,13.2a1.167,1.167,0,0,0-.682,1.1,1.2,1.2,0,0,0,.8,1.033l5.819,2.2,15.73-12.5a.355.355,0,0,1,.436.016.274.274,0,0,1,.032.392L242.168,75.108v3.975a1.189,1.189,0,0,0,.854,1.138,1.4,1.4,0,0,0,1.471-.36l3.479-3.816,6.822,2.578a1.445,1.445,0,0,0,1.144-.057,1.2,1.2,0,0,0,.661-.843l3.942-21.3A1.136,1.136,0,0,0,260,55.24,1.437,1.437,0,0,0,258.589,55.182Z" transform="translate(-128.611 -48.582)"/>
  </g>
</svg>
