<svg xmlns="http://www.w3.org/2000/svg" width="131.193" height="35.022" viewBox="0 0 131.193 35.022">
  <g id="Logo" transform="translate(0.074 -0.127)">
    <path id="Path_2" data-name="Path 2" d="M1.011,0l.674-2h2.48l.674,2h.9L3.364-6.665H2.5L.122,0ZM2.939-5.659l1,2.969H1.914l1-2.969ZM14.867-6.665H12.46V0h.85V-2.651h1.616L16.156,0h.972L15.771-2.822a1.855,1.855,0,0,0,1.24-1.855A1.927,1.927,0,0,0,14.867-6.665ZM13.31-3.4V-5.913h1.45a1.214,1.214,0,0,1,1.372,1.284c0,.786-.479,1.23-1.411,1.23ZM24.769-3.75c0-1.465.635-2.29,1.772-2.29a1.5,1.5,0,0,1,1.606,1.5h.84v-.015a2.277,2.277,0,0,0-2.451-2.251c-1.65,0-2.617,1.143-2.617,3.057v.874c0,1.895.967,3.018,2.617,3.018a2.241,2.241,0,0,0,2.451-2.134v-.02h-.84A1.456,1.456,0,0,1,26.541-.625c-1.138,0-1.772-.811-1.772-2.251ZM41.14,0V-6.665h-.854v2.837H36.931V-6.665h-.854V0h.854V-3.071h3.354V0Zm8.251,0V-6.665h-.854V0Zm9.565,0V-5.9h2.026v-.762h-4.9V-5.9h2.026V0ZM71.68-.762H68.53V-3.032H71.5v-.742H68.53V-5.9H71.68v-.762h-4V0h4ZM79.428-3.75c0-1.465.635-2.29,1.772-2.29a1.5,1.5,0,0,1,1.606,1.5h.84v-.015A2.277,2.277,0,0,0,81.2-6.807c-1.65,0-2.617,1.143-2.617,3.057v.874c0,1.895.967,3.018,2.617,3.018a2.241,2.241,0,0,0,2.451-2.134v-.02h-.84A1.456,1.456,0,0,1,81.2-.625c-1.138,0-1.772-.811-1.772-2.251ZM92.9,0V-5.9H94.93v-.762h-4.9V-5.9h2.026V0Zm11.357-.625a1.583,1.583,0,0,1-1.68-1.7V-6.665h-.845v4.448A2.3,2.3,0,0,0,104.261.142a2.3,2.3,0,0,0,2.529-2.358V-6.665h-.845v4.336A1.587,1.587,0,0,1,104.261-.625Zm12.26-6.04h-2.407V0h.85V-2.651h1.616L117.81,0h.972l-1.357-2.822a1.855,1.855,0,0,0,1.24-1.855A1.927,1.927,0,0,0,116.521-6.665ZM114.963-3.4V-5.913h1.45a1.214,1.214,0,0,1,1.372,1.284c0,.786-.479,1.23-1.411,1.23ZM129.835-.762h-3.149V-3.032h2.974v-.742h-2.974V-5.9h3.149v-.762h-4V0h4Z" transform="translate(1.283 35.008)" fill="#fff" opacity="0.4"/>
    <path id="Path_1" data-name="Path 1" d="M.728-.392H3.836V-19.544H.728v-.392h6.3l5.18,15.064h.056l5.18-15.064h6.188v.392H20.524V-.392h3.108V0H14.616V-.392h3.108V-19.376h-.056L10.976.028,4.312-19.18H4.256V-.392H7.364V0H.728ZM34.356-16.716l-3.08,8.148h6.16ZM25.256-.392H27.72L35.28-20.44h.672L43.568-.392H46.06V0H37.436V-.392h3.108L37.6-8.176h-6.5L28.168-.392h3.108V0h-6.02Zm22.288,0h3.108V-19.544H47.544v-.392h5.992L63-4.676h.056V-19.544H59.948v-.392h6.636v.392H63.476V.392h-.56L51.128-18.4h-.056v18H54.18V0H47.544Zm27.3,0q.476.056,1.106.084t1.386.028a18.176,18.176,0,0,0,1.89-.1A7.168,7.168,0,0,0,81.018-.8a5.735,5.735,0,0,0,1.6-.924A5.947,5.947,0,0,0,83.944-3.3,10.506,10.506,0,0,0,85.19-6.4a16.012,16.012,0,0,0,.35-3.458,17.765,17.765,0,0,0-.42-4.018,8.042,8.042,0,0,0-1.386-3.08,6.334,6.334,0,0,0-2.562-1.974,9.833,9.833,0,0,0-3.948-.7q-.7,0-1.274.028l-1.106.056Zm-5.908,0h3.108V-19.544H68.936v-.392h5.208q.392,0,.784-.014t.784-.042q.392,0,.784-.014t.784-.014q.84,0,1.5.028t1.232.1a9.471,9.471,0,0,1,1.092.2q.518.126,1.106.322a10.1,10.1,0,0,1,2.954,1.5,8.484,8.484,0,0,1,2.044,2.17,9.129,9.129,0,0,1,1.176,2.688,12.1,12.1,0,0,1,.378,3.052,11.37,11.37,0,0,1-.448,3.318,9.323,9.323,0,0,1-1.232,2.6,8.953,8.953,0,0,1-1.834,1.96,9.675,9.675,0,0,1-2.254,1.33,8.67,8.67,0,0,1-1.274.476,9.005,9.005,0,0,1-1.232.252q-.63.084-1.386.112T77.364.112q-.42,0-.9-.014T75.516.056Q75.04.028,74.578.014T73.7,0h-4.76Zm23.744,0h3.108V-19.544H92.68v-.392H108.7v4.844h-.308a14.056,14.056,0,0,0-.784-1.918,5.278,5.278,0,0,0-1.008-1.4,3.7,3.7,0,0,0-1.4-.854,6.044,6.044,0,0,0-1.96-.28H98.588v8.652h1.82a6.3,6.3,0,0,0,1.568-.168,2.387,2.387,0,0,0,1.106-.63,3.734,3.734,0,0,0,.784-1.26,15.441,15.441,0,0,0,.63-2.058h.308V-6.3H104.5q-.2-.812-.406-1.568a4.887,4.887,0,0,0-.588-1.344,2.784,2.784,0,0,0-1.008-.938,3.357,3.357,0,0,0-1.638-.35H98.588V-.392h5.292a4.644,4.644,0,0,0,2.562-.658,5.966,5.966,0,0,0,1.666-1.568,6.792,6.792,0,0,0,.952-1.89,9.935,9.935,0,0,0,.392-1.624h.308V0H92.68Zm20.636,0h3.108V-19.544h-3.108v-.392h9.016v.392h-3.108V-.392h4.984a4.959,4.959,0,0,0,3.864-1.54,9.424,9.424,0,0,0,2.044-4.2h.308V0H113.316Z" transform="translate(-0.802 20.567)" fill="#fff"/>
  </g>
</svg>
